<svg xmlns="http://www.w3.org/2000/svg" xmlns:xlink="http://www.w3.org/1999/xlink" width="213.352" height="47.939" viewBox="0 0 213.352 47.939">
  <defs>
    <clipPath id="clip-path">
      <rect id="Retângulo_261" data-name="Retângulo 261" width="213.352" height="47.939" fill="none"/>
    </clipPath>
  </defs>
  <g id="Grupo_928" data-name="Grupo 928" transform="translate(0 0)">
    <rect id="Retângulo_253" data-name="Retângulo 253" width="212.869" height="10.157" transform="translate(0.241 28.498)" fill="#f4d500"/>
    <g id="Grupo_926" data-name="Grupo 926" transform="translate(0 0)">
      <g id="Grupo_925" data-name="Grupo 925" clip-path="url(#clip-path)">
        <rect id="Retângulo_254" data-name="Retângulo 254" width="212.869" height="10.157" transform="translate(0.241 28.497)" fill="none" stroke="#f4d500" stroke-miterlimit="22.926" stroke-width="0.567"/>
        <path id="Caminho_628" data-name="Caminho 628" d="M158.784,19.32l3.344-14.1h.081l.61,14.1Zm-6.432,9.456h4.157l1.364-5.583h5.1l.008-.082.258,5.665h4.483L165.877.246h-6.072Zm-14.8,0h4.484L143.3,15.937h4.809l-1.263,12.838h4.483L154.136.246h-4.483L148.51,11.862H143.7L144.843.246H140.36Zm-12.883,0h11.86l.4-4.075h-7.377L131.961.246h-4.484Zm-9.955-9.456,3.343-14.1h.082l.609,14.1Zm-6.433,9.456h4.157l1.365-5.583H118.9l.008-.082.258,5.665h4.483L121.808.246h-6.073Zm-8.018-16.3.8-8.151H103.1c1.589,0,2.194.9,1.993,2.934l-.217,2.2c-.224,2.282-1.315,3.016-2.986,3.016Zm-6.087,16.3h4.483l1.2-12.227h1.549c2.038,0,2.728.855,2.467,3.5l-.513,5.217a8.537,8.537,0,0,0,.062,3.5h4.565a8.159,8.159,0,0,1-.148-3.464l.494-5.014c.316-3.22-.208-5.339-2.382-6.032l.009-.082c2.077-.815,3.2-2.689,3.488-5.624l.172-1.752c.433-4.4-1.351-6.562-6-6.562H96.983Zm-10.193,0h4.484L90.873,4.322H95.56l.4-4.076H82.1l-.4,4.076H86.39ZM72.4,19.32l3.344-14.1h.081l.61,14.1Zm-6.433,9.456h4.157l1.365-5.583h5.095l.009-.082.258,5.665H81.33L79.491.246H73.418Zm-14.8,0h4.483l1.264-12.838h4.809L60.459,28.776h4.483L67.75.246H63.266L62.123,11.862H57.314L58.457.246H53.974Zm-16.265,0H38.9L40.944,7.95h.082l3.331,20.826h4.6L51.769.246H47.775l-1.68,17.077h-.082L43.333.246H37.708Zm-6.688,0H32.7L35.5.246H31.02Zm-20.79,0h3.912l2.125-21.6h.082l1.135,21.6h3.749l5.386-21.6h.081l-2.125,21.6h4.238L28.815.246h-6.4L17.554,20.665h-.081L16.63.246h-6.4Z" transform="translate(-1.092 -0.037)" fill="#313132"/>
        <path id="Caminho_629" data-name="Caminho 629" d="M223.005,48.6c-.046.03-.106.051-.13.094-.015.024.028.081.045.124.044-.029.1-.05.13-.092.014-.025-.028-.083-.045-.125" transform="translate(-32.778 -7.148)" fill="#323233" fill-rule="evenodd"/>
        <path id="Caminho_630" data-name="Caminho 630" d="M201.124,56.01l-.055.091.067.033.031-.063Z" transform="translate(-29.572 -8.238)" fill="#323233" fill-rule="evenodd"/>
        <path id="Caminho_631" data-name="Caminho 631" d="M223.652,50.486a4.154,4.154,0,0,0,2.593,3.848,4.152,4.152,0,0,1-3.438-4.091V46.6l-.6.017v3.993a4.152,4.152,0,0,0,4.153,4.152h.362a4.152,4.152,0,0,0,4.153-4.152V46.372l-7.217.2Z" transform="translate(-32.68 -6.82)" fill="#323233" fill-rule="evenodd"/>
        <rect id="Retângulo_255" data-name="Retângulo 255" width="8.638" height="1.012" transform="translate(189.537 18.404)" fill="#323233"/>
        <rect id="Retângulo_256" data-name="Retângulo 256" width="17.785" height="1.531" transform="translate(184.963 2.898)" fill="#323233"/>
        <path id="Caminho_632" data-name="Caminho 632" d="M232.506,2.582H219.884c0-1.426,4.2-2.582,5.63-2.582h1.361c1.425,0,5.63,1.156,5.63,2.582" transform="translate(-32.339 0)" fill="#323233" fill-rule="evenodd"/>
        <path id="Caminho_633" data-name="Caminho 633" d="M216.733,20.042l-.6-10.313H215.4a1.208,1.208,0,0,0-1.209,1.209l.6,11.642a1.208,1.208,0,0,0,1.209,1.209h18.7a1.209,1.209,0,0,0,1.209-1.209l.6-11.642a1.208,1.208,0,0,0-1.209-1.209h-.725l-.6,10.313a1.209,1.209,0,0,1-1.208,1.209H217.942a1.209,1.209,0,0,1-1.209-1.209" transform="translate(-31.502 -1.431)" fill="#323233" fill-rule="evenodd"/>
        <path id="Caminho_634" data-name="Caminho 634" d="M225.636,12.468h3.23l-9.372-1.936V11.2Z" transform="translate(-32.281 -1.549)" fill="#323233" fill-rule="evenodd"/>
        <path id="Caminho_635" data-name="Caminho 635" d="M219.494,7.809v.668l13.286,2.745v-.667Z" transform="translate(-32.281 -1.149)" fill="#323233" fill-rule="evenodd"/>
        <path id="Caminho_636" data-name="Caminho 636" d="M219.494,6.449v.667L232.78,9.86V9.194Z" transform="translate(-32.281 -0.949)" fill="#323233" fill-rule="evenodd"/>
        <path id="Caminho_637" data-name="Caminho 637" d="M219.494,9.838l11.76,2.43h1.526v-.352L219.494,9.171Z" transform="translate(-32.281 -1.349)" fill="#323233" fill-rule="evenodd"/>
        <path id="Caminho_638" data-name="Caminho 638" d="M234.452,6.238V5.5h-3.593Z" transform="translate(-33.953 -0.809)" fill="#323233" fill-rule="evenodd"/>
        <path id="Caminho_639" data-name="Caminho 639" d="M219.494,11.893v.775h3.753Z" transform="translate(-32.281 -1.749)" fill="#323233" fill-rule="evenodd"/>
        <path id="Caminho_640" data-name="Caminho 640" d="M221.179,5.5h-1.685v.319L232.78,8.56V7.893Z" transform="translate(-32.281 -0.809)" fill="#323233" fill-rule="evenodd"/>
        <path id="Caminho_641" data-name="Caminho 641" d="M227.5,5.5h-3.23l9.212,1.9V6.732Z" transform="translate(-32.984 -0.809)" fill="#323233" fill-rule="evenodd"/>
        <path id="Caminho_642" data-name="Caminho 642" d="M211.412,6.038h0a1.317,1.317,0,0,0-.253.777h0c-.326,2.624,2.835,8.26,2.835,8.26s1.872-2.81.5-3.63c-.626-.376-1.21-1.96-1.73-3.337a1.325,1.325,0,1,0-1.355-2.072m1.812.778a.741.741,0,1,1-.74-.74.74.74,0,0,1,.74.74" transform="translate(-31.052 -0.808)" fill="#323233" fill-rule="evenodd"/>
        <path id="Caminho_643" data-name="Caminho 643" d="M241.417,5.491a1.325,1.325,0,0,0-.284,2.618c-.52,1.377-1.1,2.961-1.73,3.337-1.368.821.5,3.63.5,3.63s3.16-5.634,2.834-8.26h0a1.324,1.324,0,0,0-.252-.777h0a1.321,1.321,0,0,0-1.071-.548m0,.584a.741.741,0,1,1-.741.74.741.741,0,0,1,.741-.74" transform="translate(-35.136 -0.808)" fill="#323233" fill-rule="evenodd"/>
        <rect id="Retângulo_257" data-name="Retângulo 257" width="4.785" height="0.484" transform="translate(201.211 7.06)" fill="#323233"/>
        <rect id="Retângulo_258" data-name="Retângulo 258" width="4.784" height="0.484" transform="translate(181.716 7.06)" fill="#323233"/>
        <path id="Caminho_644" data-name="Caminho 644" d="M203.4,32.872h1.643a5.891,5.891,0,0,1,5.035,2.845c1.647,2.717,4.642,6.51,8.852,7.307h8.7a33.278,33.278,0,0,0,.664-5.062l-5.819-2.806a1.571,1.571,0,0,1-.733-2.1,1.573,1.573,0,0,1,2.1-.733l4.517,2.179a48.732,48.732,0,0,0-.728-7.614l-8.7.016s-.819,11.129-7.07,5.422c-4.848-4.426-8.338-4.229-8.338-4.229-7.855,0-.323,25.468-.121,4.773" transform="translate(-29.407 -3.955)" fill="#323233" fill-rule="evenodd"/>
        <path id="Caminho_645" data-name="Caminho 645" d="M242.092,40.63l-.328,6.276a.363.363,0,0,0,.177.336c1.04.611,3.134.1,3.558-.12a.365.365,0,0,0,.194-.345l-1.414-6.146a.362.362,0,0,0-.362-.339h-1.464a.361.361,0,0,0-.361.339m.786-.02-.024.1-.308,5.909a.341.341,0,0,0,.166.316,2.383,2.383,0,0,0,1.083.268,2.784,2.784,0,0,1-1.508-.257.33.33,0,0,1-.161-.306l.3-5.724a.33.33,0,0,1,.329-.309Z" transform="translate(-35.557 -5.926)" fill="#323233" fill-rule="evenodd"/>
        <path id="Caminho_646" data-name="Caminho 646" d="M218.409,17.033l10.3.219h-10.3v2.8h15.137V13.085H218.409Z" transform="translate(-32.122 -1.925)" fill="#323233" fill-rule="evenodd"/>
        <path id="Caminho_647" data-name="Caminho 647" d="M225.992,34.261a1.088,1.088,0,0,0,.507,1.453l12.633,6.092.023-.349-11.572-5.611L239.191,40.9l.083-1.278a.8.8,0,0,1,.024-.151l-11.853-5.717a1.089,1.089,0,0,0-1.453.507m1.47.578a.386.386,0,1,1-.386-.386.386.386,0,0,1,.386.386" transform="translate(-33.221 -4.949)" fill="#323233" fill-rule="evenodd"/>
        <path id="Caminho_648" data-name="Caminho 648" d="M228.763,37.512l-.074.05c-.048.032-.136.09-.237.145a3.29,3.29,0,0,1-1.553.415c-.061,0-.106,0-.183,0l-.167-.014a2.774,2.774,0,0,1-.361-.053,3.172,3.172,0,0,1-.367-.1c-.121-.04-.24-.091-.358-.142a3.183,3.183,0,0,1-1.575-1.609,2.447,2.447,0,0,1-.125-.331,2.755,2.755,0,0,1-.084-.328,3.009,3.009,0,0,1-.059-.611,2.586,2.586,0,0,1,.039-.515,3.024,3.024,0,0,1,.09-.386,2.61,2.61,0,0,1,.118-.323,2.6,2.6,0,0,0-.1.329,2.975,2.975,0,0,0-.063.386,2.609,2.609,0,0,0,0,.506,2.945,2.945,0,0,0,.1.587,2.746,2.746,0,0,0,.1.307,2.224,2.224,0,0,0,.14.305,2.881,2.881,0,0,0,.925,1.055,2.987,2.987,0,0,0,.623.338c.11.038.219.077.329.1a2.66,2.66,0,0,0,.328.063,2.3,2.3,0,0,0,.325.026l.166,0,.144-.008a2.934,2.934,0,0,0,.554-.1,2.8,2.8,0,0,0,.758-.344c.087-.057.141-.1.188-.133l.072-.055Z" transform="translate(-32.888 -4.958)" fill="#f4d500" fill-rule="evenodd"/>
        <rect id="Retângulo_259" data-name="Retângulo 259" width="4.344" height="8.935" transform="translate(169.806 29.147)" fill="#f4d500"/>
        <rect id="Retângulo_260" data-name="Retângulo 260" width="4.344" height="8.935" transform="translate(169.806 29.147)" fill="none" stroke="#f4d500" stroke-miterlimit="22.926" stroke-width="0.567"/>
      </g>
    </g>
  </g>
</svg>
